<?xml version="1.0" encoding="utf-8"?>
<!-- Generator: Adobe Illustrator 22.1.0, SVG Export Plug-In . SVG Version: 6.00 Build 0)  -->
<svg version="1.1" xmlns="http://www.w3.org/2000/svg" xmlns:xlink="http://www.w3.org/1999/xlink" x="0px" y="0px"
	 viewBox="0 0 2272 1872" style="enable-background:new 0 0 2272 1872;" xml:space="preserve">
<style type="text/css">
	.st0{fill:url(#SVGID_1_);}
	.st1{fill:#2D1B0F;}
	.st2{fill:#FFEECB;}
	.st3{fill:#CEB78D;}
	.st4{fill:#A59171;}
	.st5{fill:#F5F5F5;}
	.st6{fill:#FEC83D;}
	.st7{fill:#C96928;}
	.st8{fill:#FFD98D;}
	.st9{fill:#EF7C2E;}
	.st10{fill:#FF954D;}
	.st11{fill:none;stroke:#F9AE90;stroke-width:4;stroke-miterlimit:10;}
	.st12{fill:#F9AE90;}
	.st13{fill:#D1B98F;}
	.st14{opacity:0.58;fill:#F5F5F5;}
	.st15{fill:#FCF3E3;}
	.st16{fill:#A58D67;}
	.st17{fill:#202B35;}
	.st18{fill:none;}
	.st19{fill:#364956;}
	.st20{fill:#192228;}
	.st21{fill:#415A6D;}
	.st22{fill:#8E4514;}
	.st23{opacity:0.61;fill:#FF954D;}
</style>
<g id="Background">
	<g id="Layer_1_1_">
	</g>
	<g id="Layer_2">
	</g>
	<g id="Layer_1_2_">
	</g>
	<g id="Layer_2_1_">
	</g>
	<g>
		<g>
			<radialGradient id="SVGID_1_" cx="1136" cy="936" r="1040.8151" gradientUnits="userSpaceOnUse">
				<stop  offset="0" style="stop-color:#935022"/>
				<stop  offset="0.9752" style="stop-color:#603619"/>
			</radialGradient>
			<rect x="0" class="st0" width="2272" height="1872"/>
		</g>
	</g>
</g>
<g id="object">
	<g>
		<ellipse class="st1" cx="1147.5" cy="1617" rx="944.2" ry="88.4"/>
		<g>
			<g>
				<g>
					<path class="st2" d="M581.5,575.7l-22-160.4c-1.1-7.9-7.8-13.7-15.8-13.7h-28.1c-7.4,0-13.9,5.2-15.5,12.4l-31.6,141.3
						c-8.2,36.5-12.3,73.9-12.3,111.3v59.2h130.1v-80.6C586.2,621.8,584.6,598.7,581.5,575.7z"/>
					<path class="st3" d="M586.2,645.1c0-23.2-1.6-46.4-4.7-69.4l-22-160.4c-1.1-7.9-7.8-13.7-15.8-13.7h-5.4
						c1.9,5,3.2,10.4,4.4,15.7c20.5,91.1,24.2,185.1,27.8,278.4c0.4,9.7-0.1,19.9,0,30.1h15.7V645.1z"/>
					<path class="st3" d="M542.7,417.2c-1.2-5.2-2.5-10.6-4.4-15.7h-22.7c-7.4,0-13.9,5.2-15.5,12.4l-0.8,3.5h43.5
						C542.7,417.4,542.7,417.3,542.7,417.2z"/>
					<path class="st4" d="M542.8,417.5h17l-0.3-2.2c-1.1-7.9-7.8-13.7-15.8-13.7h-5.4c1.9,5,3.2,10.4,4.4,15.7
						C542.7,417.3,542.7,417.4,542.8,417.5z"/>
					<path class="st5" d="M518.5,423.9c-6.6,3.1-7,15.3-8.5,21.5c-9.9,39.6-17.3,79.8-22.1,120.3c-2.7,22.4-4.6,44.8-5.8,67.3
						c-0.2,4.1-0.4,8.5,1.6,12.1c1.9,3.7,6.6,6.2,10.3,4.3c5.5-52.6,12-105.1,19.5-157.5c2.9-20.1,8.9-40.5,10.9-60.6
						C524.9,425.6,527,419.9,518.5,423.9z"/>
					<path class="st6" d="M545.3,626.8c-8.3,0.6-16.8,1.4-25-0.1c-5.9-1.1-11.5-3.5-17.4-4.7c-9.4-2-19.2-1.1-28.8-0.2
						c-5.3,0.5-10.7,1-16,1.5c-1.2,14.4-1.8,28.8-1.8,43.3v59.2h130.1v-80.6c0-6.3-0.1-12.6-0.4-18.9
						C572.3,625.6,558.8,625.9,545.3,626.8z"/>
					<path class="st7" d="M545.3,626.8c-3.5,0.2-7.1,0.5-10.7,0.7v98.2h24.5v-99.6C554.5,626.3,549.9,626.5,545.3,626.8z"/>
					<path class="st8" d="M559.1,626.1v99.6h15.6v-99.8C569.5,625.8,564.3,625.9,559.1,626.1z"/>
					<path class="st8" d="M516.3,625.8c-4.5-1.2-8.9-2.8-13.5-3.8c-3-0.6-6-1-9-1.1c-1.4,34.9-2.6,69.9-1.7,104.8H515
						C516.1,692.4,514.4,658.9,516.3,625.8z"/>
					<path class="st7" d="M474,621.8c-5.3,0.5-10.7,1-16,1.5c-1.2,14.4-1.8,28.8-1.8,43.3v59.2H476V621.6
						C475.3,621.7,474.7,621.7,474,621.8z"/>
					<path class="st9" d="M654,757.8L612.9,728c-12.2-8.8-26.8-13.5-41.8-13.5H525h-4.3h-46.2c-15,0-29.6,4.7-41.8,13.5l-41.1,29.8
						c-19.4,14.1-30.5,37-29.4,60.9l34.2,763.6c0.5,11.4,7.6,21.5,18.2,25.8l11.3,4.6c21.6,8.9,44.6,13.4,67.9,13.4h26.9h4.3h22.4
						c26.2,0,52.2-5.1,76.5-15.1l7.2-2.9c10.6-4.3,17.7-14.4,18.2-25.8l34.2-763.6C684.5,794.7,673.5,771.8,654,757.8z"/>
					<path class="st7" d="M656,1310.4h-39.7V986.6c0-9,7.3-16.3,16.3-16.3h7c9,0,16.3,7.3,16.3,16.3V1310.4z"/>
					<path class="st7" d="M557.6,725.7c0,0,42.8,27.3,49.5,185.3c0.6,14.3,12.4,25.6,26.7,25.6h24.3c0,0,4-126.9,0-152.8
						c-4-26-70.5-58-70.5-58H557.6z"/>
					<path class="st10" d="M456.2,725.7c0,0-58.9,22.7-78.4,58h98.1l27-58H456.2z"/>
					<g>
						<path class="st2" d="M624.7,1101.8V875.7c0-14.8-12-26.8-26.8-26.8H475.3c-19.4,0-35.1,15.7-35.1,35.1v217.8h-65.3l12.2,271.3
							h51.8V1498c0,20.8,16.9,37.7,37.7,37.7h113.9c20.8,0,37.7-16.9,37.7-37.7v-119.8h30.3l12.4-276.4H624.7z"/>
					</g>
					<path class="st11" d="M592.9,1524.4H475c-8,0-14.5-6.5-14.5-14.5V880.4c0-8,6.5-14.5,14.5-14.5h117.9c8,0,14.5,6.5,14.5,14.5
						v629.6C607.4,1517.9,600.9,1524.4,592.9,1524.4z"/>
					<g>
						<polygon class="st12" points="436.7,1113.5 375.4,1113.5 375.6,1117.9 432.2,1117.9 432.2,1361.6 386.5,1361.6 386.7,1366 
							436.7,1366 						"/>
						<polygon class="st12" points="628.3,1366 658.9,1366 659.1,1361.6 632.8,1361.6 632.8,1117.9 670,1117.9 670.2,1113.5 
							628.3,1113.5 						"/>
					</g>
					<path class="st2" d="M633.2,1568.5c-82.5,39.1-191.4,8.2-221.4-1.7c-3.9-1.3-8,1.6-8,5.8v12.1c0,5,3.1,9.6,7.7,11.3
						c114,42.7,201.8,11.3,224.6,1.4c3.5-1.5,5.8-5.1,5.8-9V1574C641.9,1569.5,637.2,1566.6,633.2,1568.5z"/>
					<g>
						<path class="st13" d="M421.8,1599.7c7.2,2.5,14.4,4.6,21.4,6.5v-30.5c-8.2-2-15.4-4-21.4-5.8V1599.7z"/>
						<path class="st13" d="M590.9,1611.4c8-1.7,15.1-3.6,21.4-5.4v-29.1c-7,2.3-14.2,4.2-21.4,5.7V1611.4z"/>
						<path class="st13" d="M633.2,1568.5c-1.6,0.8-3.2,1.5-4.8,2.2v29.8c3.1-1.2,5.7-2.2,7.7-3.1c3.5-1.5,5.8-5.1,5.8-9V1574
							C641.9,1569.5,637.2,1566.6,633.2,1568.5z"/>
					</g>
					<path class="st14" d="M429.1,783.7c-8.1,0-14.7,6.6-14.7,14.7v726h29.4v-726C443.8,790.3,437.2,783.7,429.1,783.7z"/>
					<path class="st14" d="M610.4,1488.4h-13.9c-9.9,0-17.9-8-17.9-17.9V837.6c0-9.9,8-17.9,17.9-17.9h13.9c9.9,0,17.9,8,17.9,17.9
						v632.9C628.3,1480.4,620.3,1488.4,610.4,1488.4z"/>
					<path class="st10" d="M513.8,725.7c0,0-25.1,49-28.2,113.7h37.2c0,0,4.8-99.1,11.9-111.4L513.8,725.7z"/>
				</g>
				<path class="st2" d="M553.5,410.3h-50.5c-6.9,0-12.5-5.6-12.5-12.5V316c0-6.9,5.6-12.5,12.5-12.5h50.5c6.9,0,12.5,5.6,12.5,12.5
					v81.8C566,404.7,560.4,410.3,553.5,410.3z"/>
				<path class="st15" d="M500.4,313.3c0-3.7,1.3-7.1,3.5-9.8c-7.4,0.3-13.3,6.4-13.3,13.9v78.9c0,7.5,5.9,13.6,13.3,13.9
					c-2.2-2.7-3.5-6.1-3.5-9.8V313.3z"/>
				<path class="st3" d="M566,396.4v-78.9c0-7.7-6.2-13.9-13.9-13.9h-4.2c-7.7,0-13.9,6.2-13.9,13.9v78.9c0,7.7,6.2,13.9,13.9,13.9
					h4.2C559.8,410.3,566,404,566,396.4z"/>
			</g>
			<g>
				<rect x="1033.2" y="692.8" class="st2" width="131.6" height="189.8"/>
				<path class="st3" d="M1164.8,692.8h-131.6v46.5c43.9-2.4,87.8-5.7,131.6-10.1V692.8z"/>
				<g>
					<g>
						<rect x="1033.2" y="783.5" class="st2" width="131.6" height="230.3"/>
						<rect x="1033.2" y="831.1" class="st16" width="131.6" height="26.6"/>
						<rect x="1033.2" y="787.1" class="st3" width="131.6" height="26.6"/>
						<path class="st3" d="M1168.3,847.4h-138.5c-23.8,0-43.1,19.3-43.1,43.1v0c0,14.3,11.6,25.9,25.9,25.9h173
							c14.3,0,25.9-11.6,25.9-25.9v0C1211.4,866.7,1192.1,847.4,1168.3,847.4z"/>
						<path class="st16" d="M1211.4,890.5L1211.4,890.5c0-20.1-13.8-37-32.4-41.8c-18.6,4.8-32.4,21.7-32.4,41.8v0
							c0,14.3,11.6,25.9,25.9,25.9h13.1C1199.8,916.4,1211.4,904.8,1211.4,890.5z"/>
						<path class="st2" d="M1025.5,890.5L1025.5,890.5c0-23.8,19.3-43.1,43.1-43.1h-38.9c-23.8,0-43.1,19.3-43.1,43.1v0
							c0,14.3,11.6,25.9,25.9,25.9h38.9C1037.1,916.4,1025.5,904.8,1025.5,890.5z"/>
						<path class="st2" d="M1194.1,881.9h-190.2c-9.5,0-17.2,7.7-17.2,17.2v51.7h224.7v-51.7
							C1211.4,889.6,1203.6,881.9,1194.1,881.9z"/>
						<path class="st5" d="M1032.5,881.9h-28.6c-9.5,0-17.2,7.7-17.2,17.2v51.7h28.6v-51.7C1015.2,889.6,1022.9,881.9,1032.5,881.9z
							"/>
						<path class="st3" d="M1194.1,881.9h-27.7c-9.5,0-17.2,7.7-17.2,17.2v51.7h62.2v-51.7C1211.4,889.6,1203.6,881.9,1194.1,881.9z
							"/>
						<path class="st9" d="M1231.9,929.9l-0.9-0.5c-9.2-4.7-19.3-7.2-29.6-7.2H982.2c-10.7,0-21.1,2.6-30.5,7.6l0,0
							c-91.4,48.7-143.4,148.4-131.1,251.2l45.4,379.5c3.9,32.7,31.6,57.3,64.5,57.3H1252c32.6,0,60.1-24.1,64.4-56.4l49.7-375.3
							C1380.2,1080.9,1326.4,978.3,1231.9,929.9z"/>
					</g>
					<path class="st10" d="M1152.8,957c40.9,25.9,71.9,67,85.7,113.4c21.7,73.2,0.9,152,9.1,227.9c1.5,14,7.6,30.9,19,36.1
						c5.1-42.7,8.8-85.5,10.6-128.5c2.4-59,1-119.7-20.8-174.6c-19.4-48.9-57.8-92.7-107-109h-31.7c0.4,2.3,1.1,4.5,2.1,6.6
						C1126.5,941.9,1140.5,949.2,1152.8,957z"/>
					<path class="st10" d="M915.3,1165.8c14.2,145.9,15.2,293.3,40.4,437.7c13.9,0.2,25.4-12.2,29-25.6c3.6-13.4,1.3-27.6-0.9-41.3
						c-18.4-115.7-23.1-233.5-13.9-350.3c4.2-53.9,11.6-108.3,32.7-158c13.7-32.3,32.9-62,51.9-91.4c3.2-4.9,6.3-9.8,9.6-14.6h-81.9
						c-5,0-9.9,0.6-14.7,1.7c-16.5,17.6-30.9,36.9-40.8,58.9C901.4,1039.3,909.3,1104.2,915.3,1165.8z"/>
					<path class="st10" d="M842.2,1263.3c14.4-1.7,25.3-14.8,29.1-28.7c3.8-14,2-28.8,0.4-43.1c-6.1-54-9.5-109.4,3.6-162.1
						c5.7-22.9,14.8-45.3,27.4-65.3c-60.3,53.7-92.1,134.4-82.2,217.1l9.7,81C834,1263.3,838,1263.8,842.2,1263.3z"/>
					<path class="st7" d="M1231.9,929.9l-0.9-0.5c-9.2-4.7-19.3-7.2-29.6-7.2h-51.9c49.2,16.4,87.7,60.2,107,109
						c21.8,54.9,23.2,115.6,20.8,174.6c-5.7,139-31.2,276.4-62.6,411.9h37.4c32.6,0,60.1-24.1,64.4-56.4l49.7-375.3
						C1380.2,1080.9,1326.4,978.3,1231.9,929.9z"/>
					<path class="st9" d="M1318.6,1003.1c1.7,8,2.9,16.1,4,24.1c11.1,80.6,17.5,163.2,0.1,242.6c-4.7,21.4-11.1,42.5-13,64.3
						c-1.4,16-0.2,32.1-1.3,48.1c-1.1,15.4-4.2,30.5-6.9,45.7c-9.6,53.5-21.8,131.5-40,189.2c28.3-4.2,51.1-26.6,54.9-55.7
						l49.7-375.3C1375,1119.7,1356.9,1054.4,1318.6,1003.1z"/>
					<g>
						<g>
							<rect x="941.5" y="1054.7" class="st17" width="284.8" height="417.6"/>
						</g>
						<g>
							<path class="st2" d="M1215.4,1455.3H952.5v-383.6h262.9V1455.3z M956.5,1451.3h254.9v-375.6H956.5V1451.3z"/>
						</g>
					</g>
					<path class="st18" d="M865.9,1560.6"/>
					<path class="st2" d="M865.9,1560.6c3.9,32.7,31.6,57.3,64.5,57.3H1252c32.6,0,60.1-24.1,64.4-56.4l0.1-0.8H865.9z"/>
					<g>
						<rect x="939" y="1560.6" class="st13" width="45.1" height="57.3"/>
						<rect x="1004" y="1560.6" class="st13" width="21.5" height="57.3"/>
						<rect x="984.2" y="1560.6" class="st5" width="19.8" height="57.3"/>
						<rect x="1188" y="1560.6" class="st13" width="45.1" height="57.3"/>
						<path class="st13" d="M1274.5,1613.8v-53.3h-21.5v57.2C1260.5,1617.7,1267.7,1616.3,1274.5,1613.8z"/>
						<path class="st5" d="M1252,1617.8c0.3,0,0.6,0,0.9,0v-57.2h-19.8v57.3H1252z"/>
					</g>
				</g>
				<path class="st2" d="M1171.4,763.3h-149.6c-10.8,0-19.6,8.8-19.6,19.6c0,10.8,8.8,19.6,19.6,19.6h149.6
					c10.8,0,19.6-8.8,19.6-19.6C1191,772.1,1182.2,763.3,1171.4,763.3z"/>
				<path class="st17" d="M1196.4,684.3l-15.3-40.2c-6-15.8-21.2-26.2-38.1-26.2h-84.2c-16.7,0-31.7,10.2-37.8,25.6l-16.1,40.5
					c-6.3,15.7,5.3,32.7,22.2,32.7h147C1190.8,716.6,1202.3,699.9,1196.4,684.3z"/>
				<path class="st19" d="M1135.4,617.8h-32c-18.4,29.3-27.6,64.3-25.5,98.8h41.6C1113.4,683.2,1119.1,647.6,1135.4,617.8z"/>
				<path class="st19" d="M1058.8,617.8c-8.9,0-17.4,2.9-24.3,8c-5.1,14.7-7.4,30.5-8.8,46c-1.3,14.8-1.8,29.7-1.9,44.6
					c1,0.1,2,0.2,3.1,0.2h8.5c8.1-35.1,22.6-68.8,42.6-98.8H1058.8z"/>
			</g>
			<g>
				<path class="st17" d="M1777.8,725.7h-133.7l15.7-365.5c0.5-11.4,9.9-20.4,21.3-20.4h59c11.4,0,20.7,8.9,21.3,20.3L1777.8,725.7z
					"/>
				<path class="st17" d="M1773.7,729.8H1640l15.7-365.5c0.5-11.4,9.9-20.4,21.3-20.4h59c11.4,0,20.7,8.9,21.3,20.3L1773.7,729.8z"
					/>
				<g>
					<rect x="1707.6" y="339.8" class="st20" width="21.8" height="98.5"/>
					<path class="st20" d="M1743.9,340.2c0.3,0.1,0.6,0.1,0.8,0.2C1744.4,340.3,1744.2,340.2,1743.9,340.2z"/>
					<path class="st20" d="M1745.7,340.6c0.3,0.1,0.6,0.2,0.9,0.3C1746.3,340.8,1746,340.7,1745.7,340.6z"/>
					<path class="st20" d="M1742,339.9c0.2,0,0.5,0.1,0.7,0.1C1742.4,340,1742.2,339.9,1742,339.9z"/>
					<path class="st20" d="M1747.5,341.2c0.3,0.1,0.6,0.2,1,0.4C1748.1,341.4,1747.8,341.3,1747.5,341.2z"/>
					<path class="st20" d="M1749.1,341.9c0.4,0.2,0.7,0.3,1,0.5C1749.8,342.2,1749.4,342,1749.1,341.9z"/>
					<path class="st20" d="M1681,339.8c-11.4,0-20.8,9-21.3,20.4l-3.4,78.2h27.6v-98.5H1681z"/>
					<path class="st20" d="M1753,438.3h11.8l-3.5-78.2c-0.3-7.7-4.7-14.2-11-17.7c1,0.5,1.9,1.1,2.7,1.8V438.3z"/>
					<rect x="1684" y="438.3" class="st21" width="23.6" height="287.4"/>
					<rect x="1684" y="339.8" class="st21" width="23.6" height="98.5"/>
					<path class="st21" d="M1750.1,342.4c0,0,0.1,0.1,0.1,0.1C1750.2,342.4,1750.2,342.4,1750.1,342.4z"/>
					<path class="st21" d="M1744.7,340.4c0.3,0.1,0.7,0.2,1,0.3C1745.4,340.5,1745.1,340.4,1744.7,340.4z"/>
					<path class="st21" d="M1748.4,341.6c0.2,0.1,0.4,0.2,0.7,0.3C1748.9,341.8,1748.6,341.7,1748.4,341.6z"/>
					<rect x="1729.4" y="438.3" class="st21" width="23.6" height="287.4"/>
					<path class="st21" d="M1740,339.8c0.7,0,1.3,0,2,0.1C1741.3,339.9,1740.7,339.8,1740,339.8z"/>
					<path class="st21" d="M1742.7,340c0.4,0.1,0.8,0.1,1.2,0.2C1743.5,340.1,1743.1,340.1,1742.7,340z"/>
					<path class="st21" d="M1746.6,340.9c0.3,0.1,0.6,0.2,0.8,0.3C1747.2,341.1,1746.9,341,1746.6,340.9z"/>
					<path class="st21" d="M1753,344.2c-0.9-0.7-1.8-1.3-2.7-1.8c0,0-0.1-0.1-0.1-0.1c-0.3-0.2-0.7-0.3-1-0.5
						c-0.2-0.1-0.4-0.2-0.7-0.3c-0.3-0.1-0.6-0.3-1-0.4c-0.3-0.1-0.6-0.2-0.8-0.3c-0.3-0.1-0.6-0.2-0.9-0.3c-0.3-0.1-0.7-0.2-1-0.3
						c-0.3-0.1-0.5-0.1-0.8-0.2c-0.4-0.1-0.8-0.1-1.2-0.2c-0.2,0-0.5-0.1-0.7-0.1c-0.6-0.1-1.3-0.1-2-0.1h-10.6v98.5h23.6V344.2z"/>
					<rect x="1684" y="339.8" class="st17" width="23.6" height="98.5"/>
					<path class="st17" d="M1753,344.2c-0.9-0.7-1.8-1.3-2.7-1.8c0,0-0.1-0.1-0.1-0.1c-0.3-0.2-0.7-0.3-1-0.5
						c-0.2-0.1-0.4-0.2-0.7-0.3c-0.3-0.1-0.6-0.3-1-0.4c-0.3-0.1-0.6-0.2-0.8-0.3c-0.3-0.1-0.6-0.2-0.9-0.3c-0.3-0.1-0.7-0.2-1-0.3
						c-0.3-0.1-0.5-0.1-0.8-0.2c-0.4-0.1-0.8-0.1-1.2-0.2c-0.2,0-0.5-0.1-0.7-0.1c-0.6-0.1-1.3-0.1-2-0.1h-10.6v98.5h23.6V344.2z"/>
				</g>
				<g>
					<path class="st22" d="M1842.2,1633.6h-260.3c-11.1,0-20.1-9-20.1-20.1v-2.3h300.5v2.3
						C1862.3,1624.6,1853.3,1633.6,1842.2,1633.6z"/>
					<path class="st7" d="M1707.6,634.2L1707.6,634.2c-100.6,0-182.1,81.5-182.1,182.1v760c0,25.4,20.6,46.1,46.1,46.1h261.3
						c31.4,0,56.8-25.4,56.8-56.8V816.3C1889.6,715.8,1808.1,634.2,1707.6,634.2z"/>
					<path class="st22" d="M1590.4,788.3c0-62.2,31.2-117.2,78.9-150c-82.1,17.6-143.7,90.6-143.7,178v749.5
						c0,31.2,25.3,56.6,56.6,56.6h16c-4.9-8.4-7.7-18.1-7.7-28.6V788.3z"/>
					<path class="st23" d="M1707.6,634.2L1707.6,634.2c-21.3,0-41.8,3.7-60.8,10.4c7.3-2.6,14.8-4.7,22.5-6.4
						c-43.6,30-73.4,78.5-78.2,134.2c13.2,0.7,26.5,0.6,39.7-0.2c50.2-3.1,99.2-15.9,147.7-29.1c27.4-7.5,55.2-15.5,82.1-25.5
						C1828.1,667.4,1771.7,634.2,1707.6,634.2z"/>
					<path class="st7" d="M1591.1,772.5c4.8-55.7,34.6-104.2,78.2-134.2c-7.7,1.6-15.2,3.8-22.5,6.4c0,0,0,0,0,0
						c-1.2,0.4-2.4,0.9-3.6,1.3c0,0-0.1,0-0.1,0c-8.4,3.2-16.4,6.9-24.2,11.3c-0.1,0.1-0.2,0.1-0.3,0.2c-1,0.6-2.1,1.2-3.1,1.8
						c-0.1,0-0.2,0.1-0.2,0.1c-6.4,3.8-12.6,8-18.5,12.5c-0.1,0.1-0.3,0.2-0.4,0.3c-0.9,0.7-1.7,1.3-2.5,2c-0.2,0.2-0.4,0.3-0.6,0.5
						c-0.8,0.7-1.7,1.3-2.5,2c-0.2,0.1-0.3,0.3-0.5,0.4c-0.8,0.7-1.7,1.4-2.5,2.2c-0.1,0-0.1,0.1-0.2,0.1c-3.6,3.2-7.1,6.5-10.4,9.9
						c-0.2,0.2-0.4,0.4-0.6,0.6c-0.7,0.7-1.3,1.4-2,2.1c-0.3,0.3-0.5,0.6-0.8,0.8c-0.6,0.7-1.2,1.4-1.9,2.1
						c-0.3,0.3-0.6,0.6-0.8,0.9c-0.6,0.7-1.2,1.4-1.8,2.1c-0.3,0.3-0.5,0.6-0.8,0.9c-0.6,0.7-1.2,1.4-1.8,2.2
						c-0.2,0.2-0.4,0.4-0.5,0.7c-2,2.5-4,5-5.8,7.6c-0.3,0.4-0.5,0.7-0.8,1.1c-0.5,0.7-1,1.4-1.4,2c-0.3,0.4-0.6,0.9-0.9,1.3
						c-0.4,0.7-0.9,1.3-1.3,2c-0.3,0.5-0.6,1-0.9,1.4c-0.4,0.7-0.8,1.3-1.3,2c-0.3,0.5-0.6,1-0.9,1.5c-0.4,0.7-0.8,1.3-1.2,2
						c-0.3,0.5-0.6,1.1-0.9,1.6c-0.4,0.6-0.8,1.3-1.1,1.9c-0.3,0.6-0.6,1.1-0.9,1.7c-0.6,1.1-1.2,2.2-1.8,3.4
						c-0.3,0.6-0.7,1.3-1,1.9c-0.3,0.6-0.6,1.2-0.9,1.8c-0.3,0.6-0.6,1.3-0.9,1.9c-0.3,0.6-0.6,1.2-0.9,1.8
						c-0.3,0.6-0.6,1.3-0.9,1.9c-0.3,0.6-0.6,1.2-0.8,1.8c-0.3,0.7-0.6,1.3-0.9,2c-0.3,0.6-0.5,1.2-0.8,1.8
						c-0.3,0.7-0.6,1.4-0.8,2.1c-0.2,0.6-0.5,1.2-0.7,1.8c-0.3,0.8-0.6,1.5-0.9,2.3c-0.2,0.5-0.4,1-0.6,1.6
						c-0.5,1.3-0.9,2.5-1.3,3.8c-0.1,0.4-0.3,0.8-0.4,1.2c-0.3,0.9-0.6,1.8-0.9,2.8c-0.2,0.5-0.3,1.1-0.5,1.6c0,0,0,0.1,0,0.1
						C1552.1,768.6,1571.5,771.4,1591.1,772.5z"/>
					<path class="st22" d="M1824.7,676.9c23.6,30.7,37.6,69.1,37.6,110.8v806.6c0,8-1.7,15.5-4.6,22.4c18.9-9.2,31.9-28.5,31.9-50.9
						V816.3C1889.6,760.4,1864.4,710.3,1824.7,676.9z"/>
					<path class="st23" d="M1804.6,1570h-20.5c-13.4,0-24.3-10.9-24.3-24.3V806.9c0-13.4,10.9-24.3,24.3-24.3h20.5
						c13.4,0,24.3,10.9,24.3,24.3v738.8C1828.9,1559.1,1818,1570,1804.6,1570z"/>
					<path class="st23" d="M1659.3,1570h-20.5c-13.4,0-24.3-10.9-24.3-24.3V806.9c0-13.4,10.9-24.3,24.3-24.3h20.5
						c13.4,0,24.3,10.9,24.3,24.3v738.8C1683.6,1559.1,1672.8,1570,1659.3,1570z"/>
				</g>
				<g>
					<path class="st23" d="M1862.3,1594.3v-218.5c-10.9,6.8-22.1,13.1-33.4,19.1v147.9c0,15-12.1,27.1-27.1,27.1h-14.9
						c-15,0-27.1-12.1-27.1-27.1v-117.7c-24.6,8.5-50.2,14.8-76.1,18.7v99c0,15-12.1,27.1-27.1,27.1h-14.9
						c-15,0-27.1-12.1-27.1-27.1v-94.6c-8.1-0.2-16.1-0.7-24.1-1.4v147c0,10.4,2.8,20.2,7.7,28.6h234.9c8.8,0,17.2-2,24.7-5.6
						c0,0,0,0,0,0C1860.7,1609.9,1862.3,1602.3,1862.3,1594.3z"/>
					<path class="st7" d="M1590.4,1446.8c-22-2-43.8-6-64.9-12.2v131.1c0,6.8,1.2,13.4,3.4,19.5c1.6,4.3,3.7,8.4,6.2,12.2
						c2,3,4.3,5.8,6.9,8.4c1.9,1.9,4,3.7,6.2,5.3c1.5,1.1,3,2.1,4.5,3c0.8,0.5,1.6,0.9,2.4,1.4c8,4.4,17.2,6.8,27,6.8h16
						c-4.9-8.4-7.7-18.1-7.7-28.6V1446.8z"/>
					<path class="st23" d="M1759.7,1425.2v117.7c0,15,12.1,27.1,27.1,27.1h14.9c15,0,27.1-12.1,27.1-27.1V1395
						c-21.3,11.2-43.3,21-66.1,29.1C1761.8,1424.5,1760.8,1424.8,1759.7,1425.2z"/>
					<path class="st23" d="M1614.5,1448.2v94.6c0,15,12.1,27.1,27.1,27.1h14.9c15,0,27.1-12.1,27.1-27.1v-99
						C1660.7,1447.3,1637.5,1448.8,1614.5,1448.2z"/>
				</g>
				<path class="st17" d="M1742.9,233.6H1679c-16,0-29,13-29,29v132.7c0,16,13,29,29,29h63.8c16,0,29-13,29-29V262.6
					C1771.9,246.6,1758.9,233.6,1742.9,233.6z"/>
				<g>
					<path class="st21" d="M1679,233.6c-1.9,0-3.7,0.2-5.5,0.5v189.6c1.8,0.3,3.6,0.5,5.5,0.5h25.2V233.6H1679z"/>
					<rect x="1725" y="233.6" class="st21" width="8.4" height="190.7"/>
				</g>
				<g>
					<g>
						<path class="st3" d="M1740.5,565.8h-59c-7.3,0-13.2-5.9-13.2-13.2v-59c0-7.3,5.9-13.2,13.2-13.2h59c7.3,0,13.2,5.9,13.2,13.2
							v59C1753.7,559.9,1747.8,565.8,1740.5,565.8z M1681.4,483.3c-5.7,0-10.3,4.6-10.3,10.3v59c0,5.7,4.6,10.3,10.3,10.3h59
							c5.7,0,10.3-4.6,10.3-10.3v-59c0-5.7-4.6-10.3-10.3-10.3H1681.4z"/>
					</g>
					<g>
						<path class="st3" d="M1732.3,554.4h-42.7c-5.5,0-10-4.5-10-10v-42.7c0-5.5,4.5-10,10-10h42.7c5.5,0,10,4.5,10,10v42.7
							C1742.3,549.9,1737.8,554.4,1732.3,554.4z M1689.6,494.7c-3.9,0-7,3.2-7,7v42.7c0,3.9,3.2,7,7,7h42.7c3.9,0,7-3.2,7-7v-42.7
							c0-3.9-3.2-7-7-7H1689.6z"/>
					</g>
				</g>
				<g>
					<rect x="1590.4" y="1042.2" class="st2" width="271.9" height="395.1"/>
					<rect x="1525.5" y="1042.2" class="st3" width="64.9" height="395.1"/>
					<rect x="1862.3" y="1042.2" class="st3" width="27.3" height="395.1"/>
				</g>
				<g>
					<path class="st21" d="M1853.8,1133h-266c-4.7,0-8.5,3.8-8.5,8.5v0c0,4.7,3.8,8.5,8.5,8.5h266c4.7,0,8.5-3.8,8.5-8.5v0
						C1862.3,1136.9,1858.5,1133,1853.8,1133z"/>
					<path class="st21" d="M1853.8,1172.3h-266c-4.7,0-8.5,3.8-8.5,8.5v0c0,4.7,3.8,8.5,8.5,8.5h266c4.7,0,8.5-3.8,8.5-8.5v0
						C1862.3,1176.1,1858.5,1172.3,1853.8,1172.3z"/>
					<path class="st21" d="M1853.8,1211.6h-266c-4.7,0-8.5,3.8-8.5,8.5l0,0c0,4.7,3.8,8.5,8.5,8.5h266c4.7,0,8.5-3.8,8.5-8.5l0,0
						C1862.3,1215.4,1858.5,1211.6,1853.8,1211.6z"/>
					<path class="st21" d="M1853.8,1250.9h-266c-4.7,0-8.5,3.8-8.5,8.5v0c0,4.7,3.8,8.5,8.5,8.5h266c4.7,0,8.5-3.8,8.5-8.5v0
						C1862.3,1254.7,1858.5,1250.9,1853.8,1250.9z"/>
					<path class="st21" d="M1853.8,1290.1h-266c-4.7,0-8.5,3.8-8.5,8.5l0,0c0,4.7,3.8,8.5,8.5,8.5h266c4.7,0,8.5-3.8,8.5-8.5l0,0
						C1862.3,1293.9,1858.5,1290.1,1853.8,1290.1z"/>
					<path class="st21" d="M1853.8,1329.4h-266c-4.7,0-8.5,3.8-8.5,8.5v0c0,4.7,3.8,8.5,8.5,8.5h266c4.7,0,8.5-3.8,8.5-8.5v0
						C1862.3,1333.2,1858.5,1329.4,1853.8,1329.4z"/>
				</g>
				<g>
					<path class="st3" d="M1758.1,606.5h-107.7c-18.5,0-33.5,15-33.5,33.5v0c0,11.1,9,20.1,20.1,20.1h134.5c11.1,0,20.1-9,20.1-20.1
						v0C1791.6,621.5,1776.6,606.5,1758.1,606.5z"/>
					<path class="st16" d="M1791.6,640L1791.6,640c0-15.6-10.7-28.8-25.2-32.5c-14.5,3.7-25.2,16.8-25.2,32.5v0
						c0,11.1,9,20.1,20.1,20.1h10.2C1782.6,660.1,1791.6,651.1,1791.6,640z"/>
					<path class="st2" d="M1647.1,640L1647.1,640c0-18.5,15-33.5,33.5-33.5h-30.2c-18.5,0-33.5,15-33.5,33.5v0
						c0,11.1,9,20.1,20.1,20.1h30.2C1656.1,660.1,1647.1,651.1,1647.1,640z"/>
				</g>
			</g>
		</g>
	</g>
</g>
</svg>
